<?xml version="1.0" encoding="UTF-8"?>
<svg width="259px" height="57px" viewBox="0 0 259 57" version="1.1" xmlns="http://www.w3.org/2000/svg" xmlns:xlink="http://www.w3.org/1999/xlink">
    <!-- Generator: Sketch 64 (93537) - https://sketch.com -->
    <title>logo-combined</title>
    <desc>Created with Sketch.</desc>
    <defs>
        <linearGradient x1="39.4903335%" y1="54.3445652%" x2="74.3452948%" y2="100%" id="linearGradient-1">
            <stop stop-color="#EE4645" offset="0%"></stop>
            <stop stop-color="#810707" offset="100%"></stop>
        </linearGradient>
    </defs>
    <g id="Page-1" stroke="none" stroke-width="1" fill="none" fill-rule="evenodd">
        <g id="Artboard" transform="translate(-726.000000, -277.000000)">
            <g id="logo-combined" transform="translate(726.000000, 277.000000)">
                <g id="Group" transform="translate(115.000000, -0.000700)" fill="#343434">
                    <path d="M132.3686,28.7454 C133.1326,27.8744 133.5156,26.6574 133.5156,25.0984 C133.5156,23.5374 133.1326,22.3294 132.3686,21.4734 C131.6036,20.6174 130.6246,20.1884 129.4316,20.1884 C128.2396,20.1884 127.2606,20.6174 126.4956,21.4734 C125.7306,22.3294 125.3486,23.5374 125.3486,25.0984 C125.3486,26.6574 125.7306,27.8744 126.4956,28.7454 C127.2606,29.6164 128.2396,30.0534 129.4316,30.0534 C130.6246,30.0534 131.6036,29.6164 132.3686,28.7454 M121.9306,36.4534 C119.7116,35.3384 117.9766,33.7934 116.7226,31.8194 C115.4676,29.8464 114.8416,27.6054 114.8416,25.0984 C114.8416,22.5904 115.4676,20.3494 116.7226,18.3764 C117.9766,16.4034 119.7116,14.8664 121.9306,13.7654 C124.1476,12.6644 126.6476,12.1134 129.4316,12.1134 C132.2456,12.1134 134.7616,12.6644 136.9796,13.7654 C139.1976,14.8664 140.9256,16.4034 142.1646,18.3764 C143.4026,20.3494 144.0216,22.5904 144.0216,25.0984 C144.0216,27.6054 143.4026,29.8464 142.1646,31.8194 C140.9256,33.7934 139.1976,35.3384 136.9796,36.4534 C134.7616,37.5704 132.2456,38.1284 129.4316,38.1284 C126.6476,38.1284 124.1476,37.5704 121.9306,36.4534" id="Fill-8"></path>
                    <path d="M108.4867,14.9124 C110.3057,16.7774 111.2167,19.5924 111.2167,23.3544 L111.2167,37.6694 L100.8477,37.6694 L100.8477,25.1434 C100.8477,22.2684 99.9147,20.8314 98.0487,20.8314 C97.0697,20.8314 96.2837,21.1974 95.6867,21.9324 C95.0897,22.6664 94.7927,23.8284 94.7927,25.4194 L94.7927,37.6694 L84.4227,37.6694 L84.4227,25.1434 C84.4227,22.2684 83.4887,20.8314 81.6227,20.8314 C80.6437,20.8314 79.8577,21.1974 79.2607,21.9324 C78.6637,22.6664 78.3657,23.8284 78.3657,25.4194 L78.3657,37.6694 L67.9967,37.6694 L67.9967,12.5724 L77.8607,12.5724 L77.8607,14.9124 C79.7267,13.0464 82.0977,12.1134 84.9727,12.1134 C86.6547,12.1134 88.1677,12.4274 89.5157,13.0544 C90.8597,13.6814 91.9627,14.6374 92.8187,15.9214 C93.8277,14.6984 95.0497,13.7584 96.4897,13.1004 C97.9267,12.4424 99.5027,12.1134 101.2157,12.1134 C104.2427,12.1134 106.6677,13.0464 108.4867,14.9124" id="Fill-7"></path>
                    <path d="M53.0397,37.67 L63.4087,37.67 L63.4087,12.573 L53.0397,12.573 L53.0397,37.67 Z M53.7047,9.063 C52.5577,8.069 51.9847,6.807 51.9847,5.277 C51.9847,3.747 52.5577,2.486 53.7047,1.491 C54.8517,0.498 56.3577,-2.13162821e-14 58.2237,-2.13162821e-14 C60.1197,-2.13162821e-14 61.6337,0.475 62.7667,1.423 C63.8977,2.371 64.4647,3.595 64.4647,5.093 C64.4647,6.684 63.8977,7.991 62.7667,9.017 C61.6337,10.042 60.1197,10.553 58.2237,10.553 C56.3577,10.553 54.8517,10.056 53.7047,9.063 L53.7047,9.063 Z" id="Fill-5"></path>
                    <path d="M50.1034,12.1136 L50.1034,21.2906 C49.2774,21.1686 48.5124,21.1066 47.8094,21.1066 C44.2604,21.1066 42.4864,22.9116 42.4864,26.5196 L42.4864,37.6696 L32.1174,37.6696 L32.1174,12.5726 L41.9824,12.5726 L41.9824,15.2786 C43.8174,13.1686 46.5244,12.1136 50.1034,12.1136" id="Fill-3"></path>
                    <path d="M17.206,28.7679 C17.971,27.9129 18.353,26.7039 18.353,25.1439 C18.353,23.5839 17.971,22.3689 17.206,21.4969 C16.441,20.6239 15.463,20.1889 14.269,20.1889 C13.077,20.1889 12.097,20.6239 11.333,21.4969 C10.568,22.3689 10.186,23.5839 10.186,25.1439 C10.186,26.7039 10.568,27.9129 11.333,28.7679 C12.097,29.6249 13.077,30.0529 14.269,30.0529 C15.463,30.0529 16.441,29.6249 17.206,28.7679 M22.827,13.6969 C24.677,14.7519 26.145,16.2739 27.231,18.2609 C28.317,20.2499 28.86,22.5439 28.86,25.1439 C28.86,27.7449 28.317,30.0299 27.231,32.0029 C26.145,33.9759 24.677,35.4909 22.827,36.5459 C20.976,37.6009 18.95,38.1279 16.748,38.1279 C13.963,38.1279 11.838,37.4099 10.37,35.9719 L10.37,46.5709 L6.39488462e-14,46.5709 L6.39488462e-14,12.5729 L9.865,12.5729 L9.865,14.6369 C11.363,12.9549 13.658,12.1139 16.748,12.1139 C18.95,12.1139 20.976,12.6409 22.827,13.6969" id="Fill-1"></path>
                </g>
                <path d="M17.6176661,4.76386609 C19.5702876,2.81124464 22.7361124,2.81124464 24.6887339,4.76386609 C26.582185,6.65731721 26.6395623,9.69155832 24.8608658,11.6541482 L24.6887339,11.8349339 L12.081,24.441 L35.4707194,47.6998799 C37.3695186,49.5879677 37.4354781,52.6220344 35.66234,54.5896476 L35.4907201,54.7709194 C33.6026323,56.6697186 30.5685656,56.7356781 28.6009524,54.96254 L28.4196806,54.7909201 L1.47468059,27.9979201 C-0.427917475,26.1060548 -0.489792301,23.0646072 1.29220207,21.098017 L1.46466609,20.9168661 L17.6176661,4.76386609 Z" id="Stroke-15" fill="url(#linearGradient-1)" fill-rule="nonzero"></path>
                <path d="M50.0342,1.8977 C62.4913224,1.8977 72.5892,11.9959749 72.5892,24.4527 C72.5892,36.9094251 62.4913224,47.0077 50.0342,47.0077 C47.2727763,47.0077 45.0342,44.7691237 45.0342,42.0077 C45.0342,39.2462763 47.2727763,37.0077 50.0342,37.0077 C56.9683868,37.0077 62.5892,31.3866657 62.5892,24.4527 C62.5892,17.5187343 56.9683868,11.8977 50.0342,11.8977 C43.2028628,11.8977 37.6457986,17.3547328 37.4828798,24.2431403 L37.4792035,24.5525196 L36.9442035,51.3455196 C36.8890747,54.106393 34.6062538,56.2998324 31.8453804,56.2447035 C29.1571616,56.1910254 27.0069048,54.0253595 26.9461965,51.362819 L26.9461965,51.1458804 L27.4802,24.4527 C27.4802,11.9961736 37.5778789,1.8977 50.0342,1.8977 Z" id="Stroke-16" fill="#EE4645" fill-rule="nonzero"></path>
                <path d="M75.3804755,4.76345666 C77.2739852,2.87006416 80.3082281,2.81278077 82.270763,4.59153802 L82.4515433,4.76367553 L98.6045433,20.9176755 C100.497936,22.8111853 100.555219,25.8454282 98.776462,27.807963 L98.6043245,27.9887433 L82.4513245,44.1407433 C80.4986426,46.0933044 77.3328177,46.0932064 75.3802567,44.1405245 C73.4868642,42.2470147 73.4295808,39.2127718 75.208338,37.250237 L75.3804755,37.0694567 L87.998,24.452 L75.3802567,11.8345245 C73.4868642,9.94101475 73.4295808,6.90677186 75.208338,4.94423701 L75.3804755,4.76345666 Z" id="Stroke-17" fill="#EE4645" fill-rule="nonzero"></path>
            </g>
        </g>
    </g>
</svg>