<?xml version="1.0" encoding="UTF-8"?>
<svg width="353px" height="60px" viewBox="0 0 353 60" version="1.1" xmlns="http://www.w3.org/2000/svg" xmlns:xlink="http://www.w3.org/1999/xlink">
    <title>Group</title>
    <defs>
        <linearGradient x1="39.4903335%" y1="54.3445652%" x2="74.3452948%" y2="100%" id="linearGradient-1">
            <stop stop-color="#EE4645" offset="0%"></stop>
            <stop stop-color="#810707" offset="100%"></stop>
        </linearGradient>
    </defs>
    <g id="Page-1" stroke="none" stroke-width="1" fill="none" fill-rule="evenodd">
        <g id="Group">
            <g id="Group-2" transform="translate(0.000000, 5.000000)" fill-rule="nonzero">
                <path d="M17.6174661,2.86616609 C19.5700876,0.913544635 22.7359125,0.913544635 24.6885339,2.86616609 C26.581985,4.75961721 26.6393624,7.79385832 24.8606659,9.75644822 L24.6885339,9.93723391 L12.0808,22.5433 L35.4705194,45.8021799 C37.3693187,47.6902677 37.4352782,50.7243344 35.66214,52.6919476 L35.4905201,52.8732194 C33.6024323,54.7720186 30.5683656,54.8379781 28.6007525,53.06484 L28.4194806,52.8932201 L1.47448062,26.1002201 C-0.428117444,24.2083548 -0.489992269,21.1669072 1.2920021,19.200317 L1.46446613,19.0191661 L17.6174661,2.86616609 Z" id="Stroke-15" fill="url(#linearGradient-1)"></path>
                <path d="M50.034,-1.77635684e-14 C62.4911225,-1.77635684e-14 72.589,10.0982749 72.589,22.555 C72.589,35.0117251 62.4911225,45.11 50.034,45.11 C47.2725763,45.11 45.034,42.8714237 45.034,40.11 C45.034,37.3485763 47.2725763,35.11 50.034,35.11 C56.9681869,35.11 62.589,29.4889657 62.589,22.555 C62.589,15.6210343 56.9681869,10 50.034,10 C43.2026629,10 37.6455987,15.4570328 37.4826798,22.3454403 L37.4790035,22.6548196 L36.9440035,49.4478196 C36.8888747,52.208693 34.6060538,54.4021324 31.8451804,54.3470035 C29.1569616,54.2933254 27.0067048,52.1276595 26.9459965,49.465119 L26.9459965,49.2481804 L27.48,22.555 C27.48,10.0984736 37.5776789,-1.77635684e-14 50.034,-1.77635684e-14 Z" id="Stroke-16" fill="#EE4645"></path>
                <path d="M75.3802756,2.86575666 C77.2737853,0.972364158 80.3080282,0.91508077 82.270563,2.69383802 L82.4513434,2.86597553 L98.6043434,19.0199755 C100.497736,20.9134853 100.555019,23.9477282 98.776262,25.910263 L98.6041245,26.0910433 L82.4511245,42.2430433 C80.4984426,44.1956044 77.3326177,44.1955064 75.3800567,42.2428245 C73.4866642,40.3493147 73.4293808,37.3150718 75.2081381,35.352537 L75.3802756,35.1717567 L87.9978,22.5543 L75.3800567,9.93682447 C73.4866642,8.04331475 73.4293808,5.00907186 75.208138,3.04653701 L75.3802756,2.86575666 Z" id="Stroke-17" fill="#EE4645"></path>
            </g>
            <text id="primo" font-family="Montserrat-ExtraBold, Montserrat" font-size="40" font-weight="600" fill="#343434">
                <tspan x="110" y="39">primo</tspan>
            </text>
            <text id="cloud" font-family="Montserrat-Medium, Montserrat" font-size="40" font-weight="400" fill="#828282">
                <tspan x="239" y="39">cloud</tspan>
            </text>
        </g>
    </g>
</svg>