<?xml version="1.0" encoding="UTF-8"?>
<svg width="96px" height="96px" viewBox="0 0 96 96" version="1.1" xmlns="http://www.w3.org/2000/svg" xmlns:xlink="http://www.w3.org/1999/xlink">
    <!-- Generator: Sketch 64 (93537) - https://sketch.com -->
    <title>Artboard</title>
    <desc>Created with Sketch.</desc>
    <defs>
        <linearGradient x1="39.4860859%" y1="54.3445652%" x2="74.3551342%" y2="100%" id="linearGradient-1">
            <stop stop-color="#EE4645" offset="0%"></stop>
            <stop stop-color="#810707" offset="100%"></stop>
        </linearGradient>
    </defs>
    <g id="Artboard" stroke="none" stroke-width="1" fill="none" fill-rule="evenodd">
        <g id="Group-3" transform="translate(3.000000, 24.000000)" fill-rule="nonzero">
            <g id="Group-2">
                <path d="M15.6987322,2.55349343 C17.4386919,0.813885221 20.259724,0.813885221 21.9996837,2.55349343 C23.6869174,4.24038624 23.7380457,6.94361923 22.1530686,8.69210842 L21.9996837,8.85317203 L10.7650693,20.0840309 L31.6073936,40.8055784 C33.2993929,42.4876931 33.3581687,45.1907707 31.7781446,46.9437351 L31.625216,47.1052318 C29.9427614,48.7968893 27.2391377,48.8556532 25.485819,47.2759484 L25.3242897,47.1230506 L1.31389362,23.2529234 C-0.381490791,21.5674434 -0.436626774,18.8577901 1.151289,17.105737 L1.30496981,16.944348 L15.6987322,2.55349343 Z" id="Stroke-15" fill="url(#linearGradient-1)"></path>
                <path d="M44.5847525,-1.58257246e-14 C55.6851586,-1.58257246e-14 64.6832674,8.99664492 64.6832674,20.0944545 C64.6832674,31.1922642 55.6851586,40.1889091 44.5847525,40.1889091 C42.1240779,40.1889091 40.129307,38.1945412 40.129307,35.7343636 C40.129307,33.2741861 42.1240779,31.2798182 44.5847525,31.2798182 C50.7637309,31.2798182 55.7723763,26.2719876 55.7723763,20.0944545 C55.7723763,13.9169215 50.7637309,8.90909091 44.5847525,8.90909091 C38.4974223,8.90909091 33.545583,13.770811 33.4004077,19.9077559 L33.3971319,20.1833847 L32.9203992,44.053512 C32.8712745,46.5131992 30.8370777,48.4673543 28.3768934,48.4182395 C25.9814509,48.3704172 24.0653805,46.4410058 24.011284,44.0689242 L24.011284,43.8756516 L24.4871287,20.0944545 C24.4871287,8.99682192 33.4850604,-1.58257246e-14 44.5847525,-1.58257246e-14 Z" id="Stroke-16" fill="#EE4645"></path>
                <path d="M67.1705426,2.55312866 C68.8578285,0.866288068 71.5616093,0.815253777 73.3104027,2.39996478 L73.4714941,2.55332366 L87.8652565,16.9450691 C89.5524379,18.6320141 89.6034825,21.3352487 88.0184513,23.0836888 L87.8650614,23.2447477 L73.4712991,37.6347113 C71.7312855,39.3742657 68.9102534,39.3741784 67.1703475,37.6345163 C65.4831661,35.9475713 65.4321215,33.2443367 67.0171527,31.4958966 L67.1705426,31.3348377 L78.4138812,20.0938309 L67.1703475,8.85280725 C65.4831661,7.16586223 65.4321215,4.46262765 67.0171527,2.71418752 L67.1705426,2.55312866 Z" id="Stroke-17" fill="#EE4645"></path>
            </g>
        </g>
    </g>
</svg>