<svg width="61" height="15" viewBox="0 0 61 15" fill="none" xmlns="http://www.w3.org/2000/svg">
<path d="M8.07955 6H7.02273C6.96023 5.69602 6.85085 5.42898 6.6946 5.19886C6.54119 4.96875 6.35369 4.77557 6.1321 4.61932C5.91335 4.46023 5.67045 4.34091 5.40341 4.26136C5.13636 4.18182 4.85795 4.14205 4.56818 4.14205C4.03977 4.14205 3.56108 4.27557 3.1321 4.54261C2.70597 4.80966 2.36648 5.20312 2.11364 5.72301C1.86364 6.2429 1.73864 6.88068 1.73864 7.63636C1.73864 8.39205 1.86364 9.02983 2.11364 9.54972C2.36648 10.0696 2.70597 10.4631 3.1321 10.7301C3.56108 10.9972 4.03977 11.1307 4.56818 11.1307C4.85795 11.1307 5.13636 11.0909 5.40341 11.0114C5.67045 10.9318 5.91335 10.8139 6.1321 10.6577C6.35369 10.4986 6.54119 10.304 6.6946 10.0739C6.85085 9.84091 6.96023 9.57386 7.02273 9.27273H8.07955C8 9.71875 7.85511 10.1179 7.64489 10.4702C7.43466 10.8224 7.1733 11.1222 6.8608 11.3693C6.5483 11.6136 6.19744 11.7997 5.80824 11.9276C5.42188 12.0554 5.00852 12.1193 4.56818 12.1193C3.82386 12.1193 3.16193 11.9375 2.58239 11.5739C2.00284 11.2102 1.54688 10.6932 1.21449 10.0227C0.882102 9.35227 0.715909 8.55682 0.715909 7.63636C0.715909 6.71591 0.882102 5.92045 1.21449 5.25C1.54688 4.57955 2.00284 4.0625 2.58239 3.69886C3.16193 3.33523 3.82386 3.15341 4.56818 3.15341C5.00852 3.15341 5.42188 3.21733 5.80824 3.34517C6.19744 3.47301 6.5483 3.66051 6.8608 3.90767C7.1733 4.15199 7.43466 4.45028 7.64489 4.80256C7.85511 5.15199 8 5.55114 8.07955 6ZM12.31 12.1364C11.7191 12.1364 11.2006 11.9957 10.7546 11.7145C10.3114 11.4332 9.96484 11.0398 9.71484 10.5341C9.46768 10.0284 9.34411 9.4375 9.34411 8.76136C9.34411 8.07955 9.46768 7.48437 9.71484 6.97585C9.96484 6.46733 10.3114 6.07244 10.7546 5.79119C11.2006 5.50994 11.7191 5.36932 12.31 5.36932C12.9009 5.36932 13.418 5.50994 13.8612 5.79119C14.3072 6.07244 14.6538 6.46733 14.9009 6.97585C15.1509 7.48437 15.2759 8.07955 15.2759 8.76136C15.2759 9.4375 15.1509 10.0284 14.9009 10.5341C14.6538 11.0398 14.3072 11.4332 13.8612 11.7145C13.418 11.9957 12.9009 12.1364 12.31 12.1364ZM12.31 11.233C12.7589 11.233 13.1282 11.1179 13.418 10.8878C13.7077 10.6577 13.9222 10.3551 14.0614 9.98011C14.2006 9.60511 14.2702 9.19886 14.2702 8.76136C14.2702 8.32386 14.2006 7.91619 14.0614 7.53835C13.9222 7.16051 13.7077 6.85511 13.418 6.62216C13.1282 6.3892 12.7589 6.27273 12.31 6.27273C11.8612 6.27273 11.4918 6.3892 11.2021 6.62216C10.9123 6.85511 10.6978 7.16051 10.5586 7.53835C10.4194 7.91619 10.3498 8.32386 10.3498 8.76136C10.3498 9.19886 10.4194 9.60511 10.5586 9.98011C10.6978 10.3551 10.9123 10.6577 11.2021 10.8878C11.4918 11.1179 11.8612 11.233 12.31 11.233ZM16.8111 12V5.45455H17.7827V6.44318H17.8509C17.9702 6.11932 18.1861 5.85653 18.4986 5.65483C18.8111 5.45312 19.1634 5.35227 19.5554 5.35227C19.6293 5.35227 19.7216 5.35369 19.8324 5.35653C19.9432 5.35937 20.027 5.36364 20.0838 5.36932V6.39205C20.0497 6.38352 19.9716 6.37074 19.8494 6.35369C19.7301 6.33381 19.6037 6.32386 19.4702 6.32386C19.152 6.32386 18.8679 6.39062 18.6179 6.52415C18.3707 6.65483 18.1747 6.83665 18.0298 7.0696C17.8878 7.29972 17.8168 7.5625 17.8168 7.85795V12H16.8111ZM24.5327 5.45455V6.30682H21.1406V5.45455H24.5327ZM22.1293 3.88636H23.1349V10.125C23.1349 10.4091 23.1761 10.6222 23.2585 10.7642C23.3438 10.9034 23.4517 10.9972 23.5824 11.0455C23.7159 11.0909 23.8565 11.1136 24.0043 11.1136C24.1151 11.1136 24.206 11.108 24.277 11.0966C24.348 11.0824 24.4048 11.071 24.4474 11.0625L24.652 11.9659C24.5838 11.9915 24.4886 12.017 24.3665 12.0426C24.2443 12.071 24.0895 12.0852 23.902 12.0852C23.6179 12.0852 23.3395 12.0241 23.0668 11.902C22.7969 11.7798 22.5724 11.5938 22.3935 11.3438C22.2173 11.0938 22.1293 10.7784 22.1293 10.3977V3.88636ZM27.9716 12.1534C27.5568 12.1534 27.1804 12.0753 26.8423 11.919C26.5043 11.7599 26.2358 11.5312 26.0369 11.233C25.8381 10.9318 25.7386 10.5682 25.7386 10.142C25.7386 9.76705 25.8125 9.46307 25.9602 9.23011C26.108 8.99432 26.3054 8.80966 26.5526 8.67614C26.7997 8.54261 27.0724 8.44318 27.3707 8.37784C27.6719 8.30966 27.9744 8.25568 28.2784 8.21591C28.6761 8.16477 28.9986 8.12642 29.2457 8.10085C29.4957 8.07244 29.6776 8.02557 29.7912 7.96023C29.9077 7.89489 29.9659 7.78125 29.9659 7.61932V7.58523C29.9659 7.16477 29.8509 6.83807 29.6207 6.60511C29.3935 6.37216 29.0483 6.25568 28.5852 6.25568C28.1051 6.25568 27.7287 6.3608 27.456 6.57102C27.1832 6.78125 26.9915 7.00568 26.8807 7.24432L25.9261 6.90341C26.0966 6.50568 26.3239 6.19602 26.608 5.97443C26.8949 5.75 27.2074 5.59375 27.5455 5.50568C27.8864 5.41477 28.2216 5.36932 28.5511 5.36932C28.7614 5.36932 29.0028 5.39489 29.2756 5.44602C29.5511 5.49432 29.8168 5.59517 30.0724 5.74858C30.331 5.90199 30.5455 6.13352 30.7159 6.44318C30.8864 6.75284 30.9716 7.16761 30.9716 7.6875V12H29.9659V11.1136H29.9148C29.8466 11.2557 29.733 11.4077 29.5739 11.5696C29.4148 11.7315 29.2031 11.8693 28.9389 11.983C28.6747 12.0966 28.3523 12.1534 27.9716 12.1534ZM28.125 11.25C28.5227 11.25 28.858 11.1719 29.1307 11.0156C29.4063 10.8594 29.6136 10.6577 29.7528 10.4105C29.8949 10.1634 29.9659 9.90341 29.9659 9.63068V8.71023C29.9233 8.76136 29.8295 8.80824 29.6847 8.85085C29.5426 8.89062 29.3778 8.92614 29.1903 8.95739C29.0057 8.9858 28.8253 9.01136 28.6491 9.03409C28.4759 9.05398 28.3352 9.07102 28.2273 9.08523C27.9659 9.11932 27.7216 9.17472 27.4943 9.25142C27.2699 9.32528 27.0881 9.4375 26.9489 9.58807C26.8125 9.7358 26.7443 9.9375 26.7443 10.1932C26.7443 10.5426 26.8736 10.8068 27.1321 10.9858C27.3935 11.1619 27.7244 11.25 28.125 11.25Z" fill="white"/>
<path d="M41.4588 6.32812H39.5923C39.5582 6.08665 39.4886 5.87216 39.3835 5.68466C39.2784 5.49432 39.1435 5.33239 38.9787 5.19886C38.8139 5.06534 38.6236 4.96307 38.4077 4.89205C38.1946 4.82102 37.9631 4.78551 37.7131 4.78551C37.2614 4.78551 36.8679 4.89773 36.5327 5.12216C36.1974 5.34375 35.9375 5.66761 35.7528 6.09375C35.5682 6.51705 35.4759 7.03125 35.4759 7.63636C35.4759 8.25852 35.5682 8.78125 35.7528 9.20455C35.9403 9.62784 36.2017 9.94744 36.5369 10.1634C36.8722 10.3793 37.2599 10.4872 37.7003 10.4872C37.9474 10.4872 38.1761 10.4545 38.3864 10.3892C38.5994 10.3239 38.7884 10.2287 38.9531 10.1037C39.1179 9.97585 39.2543 9.82102 39.3622 9.6392C39.473 9.45739 39.5497 9.25 39.5923 9.01705L41.4588 9.02557C41.4105 9.42614 41.2898 9.8125 41.0966 10.1847C40.9063 10.554 40.6491 10.8849 40.3253 11.1776C40.0043 11.4673 39.6207 11.6974 39.1747 11.8679C38.7315 12.0355 38.2301 12.1193 37.6705 12.1193C36.892 12.1193 36.196 11.9432 35.5824 11.5909C34.9716 11.2386 34.4886 10.7287 34.1335 10.0611C33.7812 9.39347 33.6051 8.58523 33.6051 7.63636C33.6051 6.68466 33.7841 5.875 34.142 5.20739C34.5 4.53977 34.9858 4.03125 35.5994 3.68182C36.2131 3.32955 36.9034 3.15341 37.6705 3.15341C38.1761 3.15341 38.6449 3.22443 39.0767 3.36648C39.5114 3.50852 39.8963 3.71591 40.2315 3.98864C40.5668 4.25852 40.8395 4.58949 41.0497 4.98153C41.2628 5.37358 41.3991 5.82244 41.4588 6.32812ZM42.782 3.27273H45.0575L47.4609 9.13636H47.5632L49.9666 3.27273H52.2422V12H50.4524V6.3196H50.38L48.1214 11.9574H46.9027L44.6442 6.2983H44.5717V12H42.782V3.27273ZM58.4968 5.78267C58.4627 5.43892 58.3164 5.17187 58.0579 4.98153C57.7994 4.79119 57.4485 4.69602 57.0053 4.69602C56.7042 4.69602 56.4499 4.73864 56.2425 4.82386C56.0352 4.90625 55.8761 5.02131 55.7653 5.16903C55.6573 5.31676 55.6033 5.48438 55.6033 5.67188C55.5977 5.82812 55.6303 5.96449 55.7013 6.08097C55.7752 6.19744 55.8761 6.2983 56.0039 6.38352C56.1317 6.46591 56.2795 6.53835 56.4471 6.60085C56.6147 6.66051 56.7937 6.71165 56.984 6.75426L57.7681 6.94176C58.1488 7.02699 58.4982 7.14062 58.8164 7.28267C59.1346 7.42472 59.4102 7.59943 59.6431 7.80682C59.8761 8.0142 60.0565 8.25852 60.1843 8.53977C60.315 8.82102 60.3817 9.14347 60.3846 9.5071C60.3817 10.0412 60.2454 10.5043 59.9755 10.8963C59.7085 11.2855 59.3221 11.5881 58.8164 11.804C58.3136 12.017 57.707 12.1236 56.9968 12.1236C56.2923 12.1236 55.6786 12.0156 55.1559 11.7997C54.636 11.5838 54.2298 11.2642 53.9371 10.8409C53.6474 10.4148 53.4954 9.88778 53.4812 9.25994H55.2667C55.2866 9.55256 55.3704 9.79687 55.5181 9.9929C55.6687 10.1861 55.869 10.3324 56.119 10.4318C56.3718 10.5284 56.6573 10.5767 56.9755 10.5767C57.288 10.5767 57.5593 10.5312 57.7894 10.4403C58.0224 10.3494 58.2028 10.223 58.3306 10.0611C58.4585 9.89915 58.5224 9.71307 58.5224 9.50284C58.5224 9.30682 58.4641 9.14205 58.3477 9.00852C58.234 8.875 58.0664 8.76136 57.8448 8.66761C57.6261 8.57386 57.3576 8.48864 57.0394 8.41193L56.0891 8.1733C55.3533 7.99432 54.7724 7.71449 54.3462 7.33381C53.9201 6.95312 53.7085 6.44034 53.7113 5.79545C53.7085 5.26705 53.8491 4.8054 54.1332 4.41051C54.4201 4.01562 54.8136 3.70739 55.3136 3.4858C55.8136 3.2642 56.3817 3.15341 57.0181 3.15341C57.6658 3.15341 58.2312 3.2642 58.7141 3.4858C59.1999 3.70739 59.5778 4.01562 59.8477 4.41051C60.1175 4.8054 60.2567 5.26278 60.2653 5.78267H58.4968Z" fill="white"/>
</svg>
