<svg viewBox="0 0 663 155" fill="none" xmlns="http://www.w3.org/2000/svg">
<path d="M22.8636 124L3.13636 54.1818H19.9091L32.1818 103.273H32.8182L45.3636 54.1818H61.9545L74.5 103H75.1818L87.2727 54.1818H104.091L84.3182 124H67.1818L54.0909 76.8182H53.1364L40.0455 124H22.8636ZM144.489 125.364C137.489 125.364 131.443 123.909 126.352 121C121.292 118.061 117.398 113.909 114.67 108.545C111.943 103.152 110.58 96.803 110.58 89.5C110.58 82.3182 111.943 76.0152 114.67 70.5909C117.428 65.1364 121.277 60.8939 126.216 57.8636C131.155 54.803 136.958 53.2727 143.625 53.2727C147.928 53.2727 151.989 53.9697 155.807 55.3636C159.655 56.7273 163.049 58.8485 165.989 61.7273C168.958 64.6061 171.292 68.2727 172.989 72.7273C174.686 77.1515 175.534 82.4242 175.534 88.5455V93.5909H118.307V82.5H159.761C159.731 79.3485 159.049 76.5455 157.716 74.0909C156.383 71.6061 154.519 69.6515 152.125 68.2273C149.761 66.803 147.004 66.0909 143.852 66.0909C140.489 66.0909 137.534 66.9091 134.989 68.5455C132.443 70.1515 130.458 72.2727 129.034 74.9091C127.64 77.5151 126.928 80.3788 126.898 83.5V93.1818C126.898 97.2424 127.64 100.727 129.125 103.636C130.61 106.515 132.686 108.727 135.352 110.273C138.019 111.788 141.14 112.545 144.716 112.545C147.11 112.545 149.277 112.212 151.216 111.545C153.155 110.848 154.837 109.833 156.261 108.5C157.686 107.167 158.761 105.515 159.489 103.545L174.852 105.273C173.883 109.333 172.034 112.879 169.307 115.909C166.61 118.909 163.155 121.242 158.943 122.909C154.731 124.545 149.913 125.364 144.489 125.364ZM209.545 125.409C205.121 125.409 201.136 124.621 197.591 123.045C194.076 121.439 191.288 119.076 189.227 115.955C187.197 112.833 186.182 108.985 186.182 104.409C186.182 100.47 186.909 97.2121 188.364 94.6364C189.818 92.0606 191.803 90 194.318 88.4545C196.833 86.9091 199.667 85.7424 202.818 84.9545C206 84.1364 209.288 83.5455 212.682 83.1818C216.773 82.7576 220.091 82.3788 222.636 82.0455C225.182 81.6818 227.03 81.1364 228.182 80.4091C229.364 79.6515 229.955 78.4848 229.955 76.9091V76.6364C229.955 73.2121 228.939 70.5606 226.909 68.6818C224.879 66.803 221.955 65.8636 218.136 65.8636C214.106 65.8636 210.909 66.7424 208.545 68.5C206.212 70.2576 204.636 72.3333 203.818 74.7273L188.455 72.5455C189.667 68.303 191.667 64.7576 194.455 61.9091C197.242 59.0303 200.652 56.8788 204.682 55.4545C208.712 54 213.167 53.2727 218.045 53.2727C221.409 53.2727 224.758 53.6667 228.091 54.4545C231.424 55.2424 234.47 56.5455 237.227 58.3636C239.985 60.1515 242.197 62.5909 243.864 65.6818C245.561 68.7727 246.409 72.6364 246.409 77.2727V124H230.591V114.409H230.045C229.045 116.348 227.636 118.167 225.818 119.864C224.03 121.53 221.773 122.879 219.045 123.909C216.348 124.909 213.182 125.409 209.545 125.409ZM213.818 113.318C217.121 113.318 219.985 112.667 222.409 111.364C224.833 110.03 226.697 108.273 228 106.091C229.333 103.909 230 101.53 230 98.9545V90.7273C229.485 91.1515 228.606 91.5455 227.364 91.9091C226.152 92.2727 224.788 92.5909 223.273 92.8636C221.758 93.1364 220.258 93.3788 218.773 93.5909C217.288 93.803 216 93.9848 214.909 94.1364C212.455 94.4697 210.258 95.0152 208.318 95.7727C206.379 96.5303 204.848 97.5909 203.727 98.9545C202.606 100.288 202.045 102.015 202.045 104.136C202.045 107.167 203.152 109.455 205.364 111C207.576 112.545 210.394 113.318 213.818 113.318ZM322.818 54.1818L297.955 124H279.773L254.909 54.1818H272.455L288.5 106.045H289.227L305.318 54.1818H322.818ZM362.739 125.364C355.739 125.364 349.693 123.909 344.602 121C339.542 118.061 335.648 113.909 332.92 108.545C330.193 103.152 328.83 96.803 328.83 89.5C328.83 82.3182 330.193 76.0152 332.92 70.5909C335.678 65.1364 339.527 60.8939 344.466 57.8636C349.405 54.803 355.208 53.2727 361.875 53.2727C366.178 53.2727 370.239 53.9697 374.057 55.3636C377.905 56.7273 381.299 58.8485 384.239 61.7273C387.208 64.6061 389.542 68.2727 391.239 72.7273C392.936 77.1515 393.784 82.4242 393.784 88.5455V93.5909H336.557V82.5H378.011C377.981 79.3485 377.299 76.5455 375.966 74.0909C374.633 71.6061 372.769 69.6515 370.375 68.2273C368.011 66.803 365.254 66.0909 362.102 66.0909C358.739 66.0909 355.784 66.9091 353.239 68.5455C350.693 70.1515 348.708 72.2727 347.284 74.9091C345.89 77.5151 345.178 80.3788 345.148 83.5V93.1818C345.148 97.2424 345.89 100.727 347.375 103.636C348.86 106.515 350.936 108.727 353.602 110.273C356.269 111.788 359.39 112.545 362.966 112.545C365.36 112.545 367.527 112.212 369.466 111.545C371.405 110.848 373.087 109.833 374.511 108.5C375.936 107.167 377.011 105.515 377.739 103.545L393.102 105.273C392.133 109.333 390.284 112.879 387.557 115.909C384.86 118.909 381.405 121.242 377.193 122.909C372.981 124.545 368.163 125.364 362.739 125.364Z" fill="white"/>
<path d="M442.909 125.364C435.939 125.364 429.955 123.833 424.955 120.773C419.985 117.712 416.152 113.485 413.455 108.091C410.788 102.667 409.455 96.4242 409.455 89.3636C409.455 82.2727 410.818 76.0152 413.545 70.5909C416.273 65.1364 420.121 60.8939 425.091 57.8636C430.091 54.803 436 53.2727 442.818 53.2727C448.485 53.2727 453.5 54.3182 457.864 56.4091C462.258 58.4697 465.758 61.3939 468.364 65.1818C470.97 68.9394 472.455 73.3333 472.818 78.3636H457.091C456.455 75 454.939 72.197 452.545 69.9545C450.182 67.6818 447.015 66.5455 443.045 66.5455C439.682 66.5455 436.727 67.4545 434.182 69.2727C431.636 71.0606 429.652 73.6364 428.227 77C426.833 80.3636 426.136 84.3939 426.136 89.0909C426.136 93.8485 426.833 97.9394 428.227 101.364C429.621 104.758 431.576 107.379 434.091 109.227C436.636 111.045 439.621 111.955 443.045 111.955C445.47 111.955 447.636 111.5 449.545 110.591C451.485 109.652 453.106 108.303 454.409 106.545C455.712 104.788 456.606 102.652 457.091 100.136H472.818C472.424 105.076 470.97 109.455 468.455 113.273C465.939 117.061 462.515 120.03 458.182 122.182C453.848 124.303 448.758 125.364 442.909 125.364ZM486.33 124V54.1818H502.057V66.0455H502.875C504.33 62.0455 506.739 58.9242 510.102 56.6818C513.466 54.4091 517.481 53.2727 522.148 53.2727C526.875 53.2727 530.86 54.4242 534.102 56.7273C537.375 59 539.678 62.1061 541.011 66.0455H541.739C543.284 62.1667 545.89 59.0758 549.557 56.7727C553.254 54.4394 557.633 53.2727 562.693 53.2727C569.117 53.2727 574.36 55.303 578.42 59.3636C582.481 63.4242 584.511 69.3485 584.511 77.1364V124H568.011V79.6818C568.011 75.3485 566.86 72.1818 564.557 70.1818C562.254 68.1515 559.436 67.1364 556.102 67.1364C552.133 67.1364 549.027 68.3788 546.784 70.8636C544.572 73.3182 543.466 76.5151 543.466 80.4545V124H527.33V79C527.33 75.3939 526.239 72.5152 524.057 70.3636C521.905 68.2121 519.087 67.1364 515.602 67.1364C513.239 67.1364 511.087 67.7424 509.148 68.9545C507.208 70.1364 505.663 71.8182 504.511 74C503.36 76.1515 502.784 78.6667 502.784 81.5455V124H486.33ZM656.386 72.6364L641.386 74.2727C640.962 72.7576 640.22 71.3333 639.159 70C638.129 68.6667 636.735 67.5909 634.977 66.7727C633.22 65.9545 631.068 65.5455 628.523 65.5455C625.098 65.5455 622.22 66.2879 619.886 67.7727C617.583 69.2576 616.447 71.1818 616.477 73.5455C616.447 75.5758 617.189 77.2273 618.705 78.5C620.25 79.7727 622.795 80.8182 626.341 81.6364L638.25 84.1818C644.856 85.6061 649.765 87.8636 652.977 90.9545C656.22 94.0455 657.856 98.0909 657.886 103.091C657.856 107.485 656.568 111.364 654.023 114.727C651.508 118.061 648.008 120.667 643.523 122.545C639.038 124.424 633.886 125.364 628.068 125.364C619.523 125.364 612.644 123.576 607.432 120C602.22 116.394 599.114 111.379 598.114 104.955L614.159 103.409C614.886 106.561 616.432 108.939 618.795 110.545C621.159 112.152 624.235 112.955 628.023 112.955C631.932 112.955 635.068 112.152 637.432 110.545C639.826 108.939 641.023 106.955 641.023 104.591C641.023 102.591 640.25 100.939 638.705 99.6364C637.189 98.3333 634.826 97.3333 631.614 96.6364L619.705 94.1364C613.008 92.7424 608.053 90.3939 604.841 87.0909C601.629 83.7576 600.038 79.5455 600.068 74.4545C600.038 70.1515 601.205 66.4242 603.568 63.2727C605.962 60.0909 609.28 57.6364 613.523 55.9091C617.795 54.1515 622.72 53.2727 628.295 53.2727C636.477 53.2727 642.917 55.0152 647.614 58.5C652.341 61.9848 655.265 66.697 656.386 72.6364Z" fill="#93738C"/>
</svg>
