<svg viewBox="0 0 871 198" fill="none" xmlns="http://www.w3.org/2000/svg">
                        <g clip-path="url(#clip0_250_527)">
                            <path d="M814.062 159.924C782.686 159.924 757.171 134.408 757.171 103.032C757.171 71.6567 782.686 46.1408 814.062 46.1408C845.438 46.1408 870.954 71.6567 870.954 103.032C870.954 134.408 845.438 159.924 814.062 159.924ZM814.062 70.3186C796.021 70.3186 781.395 84.9914 781.395 102.986C781.395 120.981 796.067 135.654 814.062 135.654C832.057 135.654 846.73 120.981 846.73 102.986C846.73 84.9914 832.057 70.3186 814.062 70.3186Z" fill="#FDFDFD"></path>
                            <path d="M700.925 46.0947C689.897 46.0947 679.931 50.5242 672.641 57.676C665.35 50.5242 655.384 46.0947 644.356 46.0947C622.07 46.0947 603.983 64.228 603.983 86.4679V147.789C603.983 154.479 609.382 159.878 616.072 159.878C622.763 159.878 628.161 154.479 628.161 147.789V86.4679C628.161 77.5627 635.405 70.3186 644.31 70.3186C653.215 70.3186 660.46 77.5627 660.46 86.4679V147.789C660.46 154.479 665.858 159.878 672.548 159.878C679.239 159.878 684.637 154.479 684.637 147.789V86.4679C684.637 77.5627 691.881 70.3186 700.787 70.3186C709.692 70.3186 716.936 77.5627 716.936 86.4679V147.789C716.936 154.479 722.334 159.878 729.025 159.878C735.715 159.878 741.114 154.479 741.114 147.789V86.4679C741.114 64.1819 722.98 46.0947 700.74 46.0947H700.925Z" fill="#FDFDFD"></path>
                            <path d="M571.039 159.786C564.348 159.786 558.95 154.387 558.95 147.697V58.0913C558.95 51.4009 564.348 46.0024 571.039 46.0024C577.729 46.0024 583.128 51.4009 583.128 58.0913V147.697C583.128 154.387 577.729 159.786 571.039 159.786Z" fill="#FDFDFD"></path>
                            <path d="M571.039 26.4848C578.352 26.4848 584.281 20.556 584.281 13.2424C584.281 5.92883 578.352 0 571.039 0C563.725 0 557.796 5.92883 557.796 13.2424C557.796 20.556 563.725 26.4848 571.039 26.4848Z" fill="#FDFDFD"></path>
                            <path d="M482.356 159.785C475.666 159.785 470.267 154.387 470.267 147.697V102.894C470.267 71.5181 495.783 46.0023 527.159 46.0023C533.849 46.0023 539.248 51.4007 539.248 58.0911C539.248 64.7816 533.849 70.18 527.159 70.18C509.118 70.18 494.491 84.8528 494.491 102.848V147.65C494.491 154.341 489.093 159.739 482.402 159.739L482.356 159.785Z" fill="#FDFDFD"></path>
                            <path d="M349.701 197.99C343.011 197.99 337.612 192.592 337.612 185.901V102.894C337.612 71.5182 363.128 46.0024 394.504 46.0024C425.88 46.0024 451.396 71.5182 451.396 102.894C451.396 134.27 425.88 159.786 394.504 159.786C387.814 159.786 382.415 154.387 382.415 147.697C382.415 141.006 387.814 135.608 394.504 135.608C412.545 135.608 427.172 120.935 427.172 102.94C427.172 84.9452 412.499 70.2724 394.504 70.2724C376.509 70.2724 361.836 84.9452 361.836 102.94V185.947C361.836 192.638 356.438 198.036 349.747 198.036L349.701 197.99Z" fill="#FDFDFD"></path>
                            <path d="M222.814 159.371C219.723 159.371 216.631 158.171 214.232 155.818C209.526 151.065 209.526 143.406 214.232 138.699L249.668 103.263L214.232 67.8271C209.526 63.0746 209.526 55.4153 214.232 50.7089C218.984 45.9564 226.644 45.9564 231.35 50.7089L275.368 94.7272C280.075 99.4797 280.075 107.139 275.368 111.845L231.35 155.864C228.997 158.217 225.906 159.417 222.768 159.417L222.814 159.371Z" fill="#35D994"></path>
                            <path d="M94.7272 197.99C91.6358 197.99 88.5443 196.791 86.145 194.437L3.55296 111.799C-1.1534 107.047 -1.1534 99.3874 3.55296 94.681L47.5713 50.6627C52.3238 45.9102 59.9832 45.9102 64.6895 50.6627C69.3959 55.4152 69.3959 63.0746 64.6895 67.7809L29.2073 103.217L103.263 177.273C107.97 182.026 107.97 189.685 103.263 194.391C100.91 196.744 97.8186 197.944 94.6811 197.944L94.7272 197.99Z" fill="url(#paint0_linear_250_527)"></path>
                            <path d="M94.7273 197.99C88.0369 197.99 82.6384 192.592 82.6384 185.901V102.894C82.6384 71.5181 108.154 46.0023 139.53 46.0023C170.906 46.0023 196.422 71.5181 196.422 102.894C196.422 134.27 170.906 159.785 139.53 159.785C132.84 159.785 127.441 154.387 127.441 147.697C127.441 141.006 132.84 135.608 139.53 135.608C157.571 135.608 172.198 120.935 172.198 102.94C172.198 84.9451 157.525 70.2723 139.53 70.2723C121.535 70.2723 106.862 84.9451 106.862 102.94V185.947C106.862 192.638 101.464 198.036 94.7735 198.036L94.7273 197.99Z" fill="#35D994"></path>
                        </g>
                        <defs>
                            <linearGradient id="paint0_linear_250_527" x1="25.5621" y1="72.6719" x2="125.319" y2="172.428" gradientUnits="userSpaceOnUse">
                                <stop stop-color="#35D994"></stop>
                                <stop offset="0.16" stop-color="#32D28E"></stop>
                                <stop offset="0.38" stop-color="#29BF80"></stop>
                                <stop offset="0.64" stop-color="#1CA169"></stop>
                                <stop offset="0.93" stop-color="#097649"></stop>
                                <stop offset="0.95" stop-color="#097548"></stop>
                            </linearGradient>
                            <clipPath id="clip0_250_527">
                                <rect width="871" height="197.99" fill="white"></rect>
                            </clipPath>
                        </defs>
                    </svg>