<svg viewBox="0 0 668 155" fill="none" xmlns="http://www.w3.org/2000/svg">
<path d="M21.5 124L2.5 54.1818H22.0909L32.9091 101.091H33.5455L44.8182 54.1818H64.0455L75.5 100.818H76.0909L86.7273 54.1818H106.273L87.3182 124H66.8182L54.8182 80.0909H53.9545L41.9545 124H21.5ZM146.67 125.364C139.489 125.364 133.307 123.909 128.125 121C122.973 118.061 119.004 113.909 116.216 108.545C113.428 103.152 112.034 96.7727 112.034 89.4091C112.034 82.2273 113.428 75.9242 116.216 70.5C119.004 65.0758 122.928 60.8485 127.989 57.8182C133.08 54.7879 139.049 53.2727 145.898 53.2727C150.504 53.2727 154.792 54.0152 158.761 55.5C162.761 56.9545 166.246 59.1515 169.216 62.0909C172.216 65.0303 174.549 68.7273 176.216 73.1818C177.883 77.6061 178.716 82.7879 178.716 88.7273V94.0455H119.761V82.0455H160.489C160.489 79.2576 159.883 76.7879 158.67 74.6364C157.458 72.4848 155.777 70.803 153.625 69.5909C151.504 68.3485 149.034 67.7273 146.216 67.7273C143.277 67.7273 140.67 68.4091 138.398 69.7727C136.155 71.1061 134.398 72.9091 133.125 75.1818C131.852 77.4242 131.201 79.9242 131.17 82.6818V94.0909C131.17 97.5455 131.807 100.53 133.08 103.045C134.383 105.561 136.216 107.5 138.58 108.864C140.943 110.227 143.746 110.909 146.989 110.909C149.14 110.909 151.11 110.606 152.898 110C154.686 109.394 156.216 108.485 157.489 107.273C158.761 106.061 159.731 104.576 160.398 102.818L178.307 104C177.398 108.303 175.534 112.061 172.716 115.273C169.928 118.455 166.322 120.939 161.898 122.727C157.504 124.485 152.428 125.364 146.67 125.364ZM211.261 125.318C206.807 125.318 202.837 124.545 199.352 123C195.867 121.424 193.11 119.106 191.08 116.045C189.08 112.955 188.08 109.106 188.08 104.5C188.08 100.621 188.792 97.3636 190.216 94.7273C191.64 92.0909 193.58 89.9697 196.034 88.3636C198.489 86.7576 201.277 85.5455 204.398 84.7273C207.549 83.9091 210.852 83.3333 214.307 83C218.367 82.5758 221.64 82.1818 224.125 81.8182C226.61 81.4242 228.413 80.8485 229.534 80.0909C230.655 79.3333 231.216 78.2121 231.216 76.7273V76.4545C231.216 73.5758 230.307 71.3485 228.489 69.7727C226.701 68.197 224.155 67.4091 220.852 67.4091C217.367 67.4091 214.595 68.1818 212.534 69.7273C210.473 71.2424 209.11 73.1515 208.443 75.4545L190.534 74C191.443 69.7576 193.231 66.0909 195.898 63C198.564 59.8788 202.004 57.4848 206.216 55.8182C210.458 54.1212 215.367 53.2727 220.943 53.2727C224.822 53.2727 228.534 53.7273 232.08 54.6364C235.655 55.5455 238.822 56.9545 241.58 58.8636C244.367 60.7727 246.564 63.2273 248.17 66.2273C249.777 69.197 250.58 72.7576 250.58 76.9091V124H232.216V114.318H231.67C230.549 116.5 229.049 118.424 227.17 120.091C225.292 121.727 223.034 123.015 220.398 123.955C217.761 124.864 214.716 125.318 211.261 125.318ZM216.807 111.955C219.655 111.955 222.17 111.394 224.352 110.273C226.534 109.121 228.246 107.576 229.489 105.636C230.731 103.697 231.352 101.5 231.352 99.0455V91.6364C230.746 92.0303 229.913 92.3939 228.852 92.7273C227.822 93.0303 226.655 93.3182 225.352 93.5909C224.049 93.8333 222.746 94.0606 221.443 94.2727C220.14 94.4545 218.958 94.6212 217.898 94.7727C215.625 95.1061 213.64 95.6364 211.943 96.3636C210.246 97.0909 208.928 98.0758 207.989 99.3182C207.049 100.53 206.58 102.045 206.58 103.864C206.58 106.5 207.534 108.515 209.443 109.909C211.383 111.273 213.837 111.955 216.807 111.955ZM328.193 54.1818L303.784 124H281.966L257.557 54.1818H278.011L292.511 104.136H293.239L307.693 54.1818H328.193ZM367.67 125.364C360.489 125.364 354.307 123.909 349.125 121C343.973 118.061 340.004 113.909 337.216 108.545C334.428 103.152 333.034 96.7727 333.034 89.4091C333.034 82.2273 334.428 75.9242 337.216 70.5C340.004 65.0758 343.928 60.8485 348.989 57.8182C354.08 54.7879 360.049 53.2727 366.898 53.2727C371.504 53.2727 375.792 54.0152 379.761 55.5C383.761 56.9545 387.246 59.1515 390.216 62.0909C393.216 65.0303 395.549 68.7273 397.216 73.1818C398.883 77.6061 399.716 82.7879 399.716 88.7273V94.0455H340.761V82.0455H381.489C381.489 79.2576 380.883 76.7879 379.67 74.6364C378.458 72.4848 376.777 70.803 374.625 69.5909C372.504 68.3485 370.034 67.7273 367.216 67.7273C364.277 67.7273 361.67 68.4091 359.398 69.7727C357.155 71.1061 355.398 72.9091 354.125 75.1818C352.852 77.4242 352.201 79.9242 352.17 82.6818V94.0909C352.17 97.5455 352.807 100.53 354.08 103.045C355.383 105.561 357.216 107.5 359.58 108.864C361.943 110.227 364.746 110.909 367.989 110.909C370.14 110.909 372.11 110.606 373.898 110C375.686 109.394 377.216 108.485 378.489 107.273C379.761 106.061 380.731 104.576 381.398 102.818L399.307 104C398.398 108.303 396.534 112.061 393.716 115.273C390.928 118.455 387.322 120.939 382.898 122.727C378.504 124.485 373.428 125.364 367.67 125.364Z" fill="white"/>
<path d="M443.273 125.364C436.121 125.364 429.97 123.848 424.818 120.818C419.697 117.758 415.758 113.515 413 108.091C410.273 102.667 408.909 96.4242 408.909 89.3636C408.909 82.2121 410.288 75.9394 413.045 70.5455C415.833 65.1212 419.788 60.8939 424.909 57.8636C430.03 54.803 436.121 53.2727 443.182 53.2727C449.273 53.2727 454.606 54.3788 459.182 56.5909C463.758 58.803 467.379 61.9091 470.045 65.9091C472.712 69.9091 474.182 74.6061 474.455 80H456.182C455.667 76.5151 454.303 73.7121 452.091 71.5909C449.909 69.4394 447.045 68.3636 443.5 68.3636C440.5 68.3636 437.879 69.1818 435.636 70.8182C433.424 72.4242 431.697 74.7727 430.455 77.8636C429.212 80.9545 428.591 84.697 428.591 89.0909C428.591 93.5455 429.197 97.3333 430.409 100.455C431.652 103.576 433.394 105.955 435.636 107.591C437.879 109.227 440.5 110.045 443.5 110.045C445.712 110.045 447.697 109.591 449.455 108.682C451.242 107.773 452.712 106.455 453.864 104.727C455.045 102.97 455.818 100.864 456.182 98.4091H474.455C474.152 103.742 472.697 108.439 470.091 112.5C467.515 116.53 463.955 119.682 459.409 121.955C454.864 124.227 449.485 125.364 443.273 125.364ZM486.852 124V54.1818H505.307V66.5H506.125C507.58 62.4091 510.004 59.1818 513.398 56.8182C516.792 54.4545 520.852 53.2727 525.58 53.2727C530.367 53.2727 534.443 54.4697 537.807 56.8636C541.17 59.2273 543.413 62.4394 544.534 66.5H545.261C546.686 62.5 549.261 59.303 552.989 56.9091C556.746 54.4848 561.186 53.2727 566.307 53.2727C572.822 53.2727 578.11 55.3485 582.17 59.5C586.261 63.6212 588.307 69.4697 588.307 77.0455V124H568.989V80.8636C568.989 76.9848 567.958 74.0758 565.898 72.1364C563.837 70.197 561.261 69.2273 558.17 69.2273C554.655 69.2273 551.913 70.3485 549.943 72.5909C547.973 74.803 546.989 77.7273 546.989 81.3636V124H528.216V80.4545C528.216 77.0303 527.231 74.303 525.261 72.2727C523.322 70.2424 520.761 69.2273 517.58 69.2273C515.428 69.2273 513.489 69.7727 511.761 70.8636C510.064 71.9242 508.716 73.4242 507.716 75.3636C506.716 77.2727 506.216 79.5152 506.216 82.0909V124H486.852ZM661.693 74.0909L643.966 75.1818C643.663 73.6667 643.011 72.303 642.011 71.0909C641.011 69.8485 639.693 68.8636 638.057 68.1364C636.451 67.3788 634.527 67 632.284 67C629.284 67 626.754 67.6364 624.693 68.9091C622.633 70.1515 621.602 71.8182 621.602 73.9091C621.602 75.5758 622.269 76.9848 623.602 78.1364C624.936 79.2879 627.223 80.2121 630.466 80.9091L643.102 83.4545C649.89 84.8485 654.951 87.0909 658.284 90.1818C661.617 93.2727 663.284 97.3333 663.284 102.364C663.284 106.939 661.936 110.955 659.239 114.409C656.572 117.864 652.905 120.561 648.239 122.5C643.602 124.409 638.254 125.364 632.193 125.364C622.951 125.364 615.587 123.439 610.102 119.591C604.648 115.712 601.451 110.439 600.511 103.773L619.557 102.773C620.133 105.591 621.527 107.742 623.739 109.227C625.951 110.682 628.784 111.409 632.239 111.409C635.633 111.409 638.36 110.758 640.42 109.455C642.511 108.121 643.572 106.409 643.602 104.318C643.572 102.561 642.83 101.121 641.375 100C639.92 98.8485 637.678 97.9697 634.648 97.3636L622.557 94.9545C615.739 93.5909 610.663 91.2273 607.33 87.8636C604.027 84.5 602.375 80.2121 602.375 75C602.375 70.5151 603.587 66.6515 606.011 63.4091C608.466 60.1667 611.905 57.6667 616.33 55.9091C620.784 54.1515 625.996 53.2727 631.966 53.2727C640.784 53.2727 647.723 55.1364 652.784 58.8636C657.875 62.5909 660.845 67.6667 661.693 74.0909Z" fill="#70809E"/>
</svg>
